# xmcd
#
# Track frame offsets: 
#        150
#        12612
#        23718
#        33725
#        46095
#        57566
#        67626
#        83452
#        96674
#        115762
#        131790
#        142608
#        156300
#        168429
#        181702
#        194562
#        208766
#        221381
#        235865
#        250815
#        262193
#
# Disc length: 3674 seconds
#
# Revision: 2
# Processed by: cddbd v1.5.2PL0 Copyright (c) Steve Scherf et al.
# Submitted via: ExactAudioCopyFreeDBPlugin 1.0
#
DISCID=270e5815
DTITLE=Billie Jo Spears - Readers Digest's Country Classics - CD 3
DYEAR=1994
DGENRE=Country
TTITLE0=What I've Got In Mind
TTITLE1=If You Want Me
TTITLE2=Never Did Like Whiskey
TTITLE3=Lonely Hearts Club
TTITLE4=Heart Over Mind
TTITLE5=Put A Little Love In Your Heart
TTITLE6=Tha Angel in Your Arms
TTITLE7=What The World Needs Now Is Love
TTITLE8=Everything Is Beautiful
TTITLE9=I've never Loved Anyone More
TTITLE10=He's Got More love in His Little Finger
TTITLE11=Mr. Walker, It's All Over
TTITLE12=Seeing Is Believing
TTITLE13=You And Your Sweet Love
TTITLE14=Softly And tenderly
TTITLE15=See The Funny Little Clown
TTITLE16=Then Give Him Back To Me
TTITLE17=Husbands And Wives
TTITLE18=Too Far Gone
TTITLE19=True Love
TTITLE20=Every Word I Write
EXTD=Reader's Digest Collection disc 3
EXTT0=
EXTT1=
EXTT2=
EXTT3=
EXTT4=
EXTT5=
EXTT6=
EXTT7=
EXTT8=
EXTT9=
EXTT10=
EXTT11=
EXTT12=
EXTT13=
EXTT14=
EXTT15=
EXTT16=
EXTT17=
EXTT18=
EXTT19=
EXTT20=
PLAYORDER=
